<svg width="15" height="13" xmlns="http://www.w3.org/2000/svg">

 <g>
  <title>background</title>
  <rect fill="none" id="canvas_background" height="602" width="802" y="-1" x="-1"/>
 </g>
 <g>
  <title>Layer 1</title>
  <path id="svg_1" d="m15.125,6.495l-6.234,-6.481l0,3.866l-1.325,0c-4.111,0 -7.441,3.159 -7.441,7.056l0,2.049l0.589,-0.612c2.001,-2.079 4.833,-3.263 7.801,-3.263l0.375,0l0,3.867l6.235,-6.482z" fill="#ffffff"/>
  <path d="m4.18751,8.31249c0.125,0 0.2598,0.02627 0.625,-0.125c0.51646,-0.21393 1.48822,-0.42065 2.37499,-0.625c2.10272,-0.48455 3.37499,-0.5 4.12499,-0.5c0.5,0 0.75,0 0.625,0c-0.25,0 -0.75,0 -1.375,0c-0.625,0 -1.25,0 -1.62499,-0.125l-0.25,0l-0.125,0" id="svg_2" fill-opacity="null" stroke-opacity="null" stroke-width="null" stroke="null" fill="none"/>
 </g>
</svg>